<svg width="729" height="741" viewBox="0 0 729 741" fill="none" xmlns="http://www.w3.org/2000/svg">
<rect x="265" width="464" height="736" fill="#FFEDE1"/>
<rect x="225" y="553" width="55" height="58" fill="#0E60FF"/>
<rect x="208" y="455" width="93" height="98" rx="46.5" fill="#F47458"/>
<path d="M32.9294 708.954C37.1627 727.759 53.8856 740 53.8856 740C53.8856 740 63.745 721.752 59.5117 702.947C55.2785 684.141 38.5555 671.9 38.5555 671.9C38.5555 671.9 28.6961 690.148 32.9294 708.954Z" fill="#201F30"/>
<path d="M40.4841 705.269C53.7018 719.287 54.5061 740.012 54.5061 740.012C54.5061 740.012 33.8804 738.01 20.6627 723.993C7.44507 709.976 6.64076 689.251 6.64076 689.251C6.64076 689.251 27.2665 691.252 40.4841 705.269Z" fill="#F47458"/>
<path d="M406.939 214.726H303.963V216.198H406.939V214.726Z" fill="#FFCEAE"/>
<path d="M378.989 215.83H377.518V229.451H378.989V215.83Z" fill="#FFCEAE"/>
<path d="M334.121 215.83H332.649V229.451H334.121V215.83Z" fill="#FFCEAE"/>
<path d="M459.164 285.408H356.188V286.88H459.164V285.408Z" fill="#FFCEAE"/>
<path d="M385.609 272.155H384.138V285.776H385.609V272.155Z" fill="#FFCEAE"/>
<path d="M430.477 272.155H429.006V285.776H430.477V272.155Z" fill="#FFCEAE"/>
<path d="M595.975 318.54H492.999V320.013H595.975V318.54Z" fill="#FFCEAE"/>
<path d="M522.42 305.288H520.949V318.909H522.42V305.288Z" fill="#FFCEAE"/>
<path d="M567.288 305.288H565.817V318.909H567.288V305.288Z" fill="#FFCEAE"/>
<path d="M585.678 660.172H482.701V661.644H585.678V660.172Z" fill="#FFCEAE"/>
<path d="M512.123 646.919H510.652V660.54H512.123V646.919Z" fill="#FFCEAE"/>
<path d="M556.991 646.919H555.52V660.54H556.991V646.919Z" fill="#FFCEAE"/>
<path d="M409.882 423.828H306.905V425.3H409.882V423.828Z" fill="#FFCEAE"/>
<path d="M336.328 410.575H334.856V424.196H336.328V410.575Z" fill="#FFCEAE"/>
<path d="M381.196 410.575H379.725V424.196H381.196V410.575Z" fill="#FFCEAE"/>
<path d="M442.246 601.27H339.27V602.742H442.246V601.27Z" fill="#FFCEAE"/>
<path d="M368.692 588.017H367.221V601.638H368.692V588.017Z" fill="#FFCEAE"/>
<path d="M413.56 588.017H412.089V601.638H413.56V588.017Z" fill="#FFCEAE"/>
<path d="M607.009 547.521H504.032V548.994H607.009V547.521Z" fill="#FFCEAE"/>
<path d="M533.454 534.269H531.982V547.89H533.454V534.269Z" fill="#FFCEAE"/>
<path d="M578.322 534.269H576.851V547.89H578.322V534.269Z" fill="#FFCEAE"/>
<path d="M266.312 705.288H92.1445V704.034H265.058V643.203H106.786L99.0976 627.169L100.227 626.626L107.575 641.948H266.312V705.288Z" fill="#201F30"/>
<path d="M115.325 736.017C122.592 736.017 128.482 730.121 128.482 722.847C128.482 715.574 122.592 709.678 115.325 709.678C108.059 709.678 102.169 715.574 102.169 722.847C102.169 730.121 108.059 736.017 115.325 736.017Z" fill="#3F3D56"/>
<path d="M245.011 736.017C252.277 736.017 258.168 730.121 258.168 722.847C258.168 715.574 252.277 709.678 245.011 709.678C237.745 709.678 231.854 715.574 231.854 722.847C231.854 730.121 237.745 736.017 245.011 736.017Z" fill="#3F3D56"/>
<path d="M397.877 451.304C402.375 451.304 406.022 447.654 406.022 443.151C406.022 438.649 402.375 434.999 397.877 434.999C393.379 434.999 389.732 438.649 389.732 443.151C389.732 447.654 393.379 451.304 397.877 451.304Z" fill="#3F3D56"/>
<path d="M284.94 622.508H89.1752L46.8164 483.914H328.563L328.307 484.729L284.94 622.508ZM90.1021 621.254H284.021L326.855 485.168H48.5099L90.1021 621.254Z" fill="#201F30"/>
<path d="M198.621 615H93.702L71 540H222L221.863 540.442L198.621 615Z" fill="#00FFC2"/>
<path d="M332.073 471.533L330.861 471.211L339.13 440.016H387.226V441.27H340.094L332.073 471.533Z" fill="#201F30"/>
<path d="M314.484 525.931H60.5049V527.185H314.484V525.931Z" fill="#201F30"/>
<path d="M299.939 572.14H74.6279V573.394H299.939V572.14Z" fill="#201F30"/>
<path d="M188.313 484.541H187.06V621.88H188.313V484.541Z" fill="#201F30"/>
<path d="M244.412 484.502L235.417 621.838L236.668 621.92L245.662 484.584L244.412 484.502Z" fill="#201F30"/>
<path d="M130.987 484.5L129.736 484.582L138.679 621.922L139.929 621.84L130.987 484.5Z" fill="#201F30"/>
<path d="M437.952 233.845C437.952 233.845 448.705 264.479 442.088 269.192C435.471 273.904 464.42 312.393 464.42 312.393L499.159 302.967L480.135 270.763C480.135 270.763 477.654 238.558 477.654 233.845C477.654 229.132 437.952 233.845 437.952 233.845Z" fill="#FFD6BA"/>
<path opacity="0.1" d="M437.952 233.845C437.952 233.845 448.705 264.479 442.088 269.192C435.471 273.904 464.42 312.393 464.42 312.393L499.159 302.967L480.135 270.763C480.135 270.763 477.654 238.558 477.654 233.845C477.654 229.132 437.952 233.845 437.952 233.845Z" fill="black"/>
<path d="M419.904 452.209C419.904 452.209 416.765 491.482 419.904 511.905C423.043 532.327 427.751 588.882 427.751 588.882C427.751 588.882 427.751 695.707 445.014 697.278C462.278 698.849 474.833 700.42 476.402 694.136C477.972 687.852 468.555 684.71 473.263 681.568C477.972 678.426 479.541 667.43 473.263 654.862C466.986 642.294 473.263 515.047 473.263 515.047L503.082 595.166C503.082 595.166 506.221 661.146 509.36 670.571C512.498 679.997 506.221 697.278 517.207 698.849C528.192 700.42 540.748 690.994 547.025 687.852C553.303 684.71 537.609 684.71 540.748 683.139C543.887 681.568 553.303 676.855 550.164 675.284C547.025 673.713 543.886 598.307 543.886 598.307C543.886 598.307 535.255 437.284 524.269 431.001C513.283 424.717 506.221 435.54 506.221 435.54L419.904 452.209Z" fill="#201F30"/>
<path d="M448.153 690.994V703.561C448.153 703.561 434.028 737.724 448.153 737.724C462.277 737.724 473.263 741.264 473.263 736.551V694.136L448.153 690.994Z" fill="#201F30"/>
<path d="M540.748 690.971V703.539C540.748 703.539 554.873 737.702 540.748 737.702C526.623 737.702 515.638 741.242 515.638 736.529V694.113L540.748 690.971Z" fill="#201F30"/>
<path d="M459.923 256.624C475.525 256.624 488.172 243.964 488.172 228.347C488.172 212.73 475.525 200.07 459.923 200.07C444.321 200.07 431.674 212.73 431.674 228.347C431.674 243.964 444.321 256.624 459.923 256.624Z" fill="#FFD6BA"/>
<path d="M451.292 280.974C451.292 280.974 459.139 304.538 471.694 299.826L484.25 295.113L506.221 445.924C506.221 445.924 488.958 471.06 463.847 455.35C438.737 439.641 451.292 280.974 451.292 280.974Z" fill="white"/>
<path d="M473.264 276.261L480.326 261.337C480.326 261.337 521.915 280.974 528.193 287.258C534.47 293.542 534.47 302.967 534.47 302.967L523.485 342.241C523.485 342.241 526.623 428.644 526.623 431.786C526.623 434.928 537.609 452.208 529.762 445.924C521.915 439.64 520.346 433.357 514.068 442.782C507.791 452.208 493.666 463.205 493.666 463.205L473.264 276.261Z" fill="#F47458"/>
<path d="M528.193 389.37L523.484 433.357C523.484 433.357 495.235 458.492 501.513 460.063C507.79 461.634 510.929 455.35 510.929 455.35C510.929 455.35 521.915 466.347 528.193 460.063C534.47 453.779 550.164 394.083 550.164 394.083L528.193 389.37Z" fill="#FFD6BA"/>
<path d="M460.526 188.383C454.263 188.159 447.561 188.048 442.281 191.426C439.852 193.122 437.721 195.21 435.976 197.605C430.833 204.112 426.39 212.3 428.3 220.374L430.519 219.508C430.519 221.663 430.04 223.792 429.117 225.739C429.43 224.83 430.476 226.3 430.196 227.22L427.752 235.246C431.77 233.771 436.767 236.756 437.379 240.996C437.658 231.673 438.624 220.984 446.179 215.525C449.989 212.773 454.81 211.932 459.449 211.186C463.729 210.498 468.215 209.841 472.315 211.252C476.414 212.662 479.905 216.858 478.975 221.096C480.865 220.445 482.979 221.763 483.913 223.532C484.847 225.301 484.896 227.389 484.925 229.389C486.939 230.815 489.232 227.984 490.053 225.656C491.981 220.189 493.694 214.37 492.656 208.668C491.617 202.965 486.975 197.515 481.184 197.495C481.887 196.723 482.262 195.706 482.229 194.662L477.456 194.258C478.668 194.086 479.782 193.498 480.609 192.594C478.692 194.705 463.625 188.494 460.526 188.383Z" fill="#201F30"/>
<path d="M459.139 271.548C459.139 271.548 446.363 259.016 441.765 259.784C437.168 260.552 430.89 271.548 430.89 271.548C430.89 271.548 393.224 284.116 394.794 296.684C396.363 309.251 413.627 370.518 413.627 370.518C413.627 370.518 427.751 444.353 415.196 452.208C402.641 460.063 474.833 480.485 476.403 471.06C477.972 461.634 481.111 367.377 476.403 353.238C471.694 339.099 459.139 271.548 459.139 271.548Z" fill="#F47458"/>
<path d="M514.068 296.684H533.474C533.474 296.684 547.026 356.38 548.595 362.664C550.165 368.948 553.303 398.796 551.734 398.796C550.165 398.796 518.777 392.512 518.777 397.225L514.068 296.684Z" fill="#F47458"/>
<path d="M513.411 444.511H439.121C431.871 411.128 431.265 378.875 439.121 348.059H513.411C501.422 378.32 500.673 410.353 513.411 444.511Z" fill="#FFCEAE"/>
<path d="M408.918 403.509L430.89 412.934C430.89 412.934 473.263 419.218 473.263 401.938C473.263 384.657 430.89 394.083 430.89 394.083L416.764 389.562L408.918 403.509Z" fill="#FFD6BA"/>
<path d="M413.626 287.258L394.793 291.971L380.668 375.231C380.668 375.231 375.96 397.225 383.807 398.796C391.654 400.367 413.626 412.934 413.626 412.934C413.626 412.934 416.765 389.37 423.042 389.37L407.348 376.802L416.765 321.819L413.626 287.258Z" fill="#F47458"/>
<path d="M147.292 448.125H44.3154V449.597H147.292V448.125Z" fill="#FFCEAE"/>
<path d="M73.7377 434.872H72.2666V448.493H73.7377V434.872Z" fill="#FFCEAE"/>
<path d="M118.606 434.872H117.135V448.493H118.606V434.872Z" fill="#FFCEAE"/>
<path d="M183.334 230.188H80.3574V231.66H183.334V230.188Z" fill="#FFCEAE"/>
<path d="M155.383 231.292H153.912V244.913H155.383V231.292Z" fill="#FFCEAE"/>
<path d="M110.515 231.292H109.044V244.913H110.515V231.292Z" fill="#FFCEAE"/>
<path d="M287.046 375.233H184.069V376.706H287.046V375.233Z" fill="#FFCEAE"/>
<path d="M259.095 376.338H257.624V389.959H259.095V376.338Z" fill="#FFCEAE"/>
<path d="M214.227 376.338H212.756V389.959H214.227V376.338Z" fill="#FFCEAE"/>
<path d="M111.986 374.497H9.00977V375.97H111.986V374.497Z" fill="#FFCEAE"/>
<path d="M84.0356 375.602H82.5645V389.223H84.0356V375.602Z" fill="#FFCEAE"/>
<path d="M39.1664 375.602H37.6953V389.223H39.1664V375.602Z" fill="#FFCEAE"/>
<path d="M235.558 300.87H132.581V302.342H235.558V300.87Z" fill="#FFCEAE"/>
<path d="M162.003 287.617H160.532V301.238H162.003V287.617Z" fill="#FFCEAE"/>
<path d="M206.871 287.617H205.4V301.238H206.871V287.617Z" fill="#FFCEAE"/>
</svg>
